<?xml version="1.0" encoding="UTF-8"?>
<svg id="Layer_1" xmlns="http://www.w3.org/2000/svg" version="1.1" viewBox="0 0 24 24">
  <!-- Generator: Adobe Illustrator 30.2.1, SVG Export Plug-In . SVG Version: 2.1.1 Build 1)  -->
  <defs>
    <style>
      .st0 {
        stroke-width: 3px;
      }

      .st0, .st1 {
        fill: none;
        stroke: #000;
        stroke-linecap: round;
        stroke-linejoin: round;
      }

      .st1 {
        stroke-width: 2px;
      }
    </style>
  </defs>
  <path class="st1" d="M85.22-8.6c-.53-.24-1.13-.24-1.66,0l-8.57,3.9c-.51.22-.73.81-.51,1.32.1.23.28.41.51.51l8.58,3.91c.53.24,1.13.24,1.66,0l8.58-3.9c.51-.22.73-.81.51-1.32-.1-.23-.28-.41-.51-.51l-8.59-3.91Z"/>
  <path class="st1" d="M94.93,1.65l-1.42-.65-8.28,3.78c-.53.24-1.13.24-1.66,0l-8.29-3.78-1.42.65c-.51.22-.73.81-.51,1.32.1.23.28.41.51.51l8.58,3.91c.53.24,1.13.24,1.66,0l8.58-3.9c.51-.22.73-.81.51-1.32-.1-.23-.28-.41-.51-.51h2.25Z"/>
  <path class="st1" d="M94.93,5.65l-1.42-.65-8.28,3.78c-.53.24-1.13.24-1.66,0l-8.29-3.78-1.42.65c-.51.22-.73.81-.51,1.32.1.23.28.41.51.51l8.58,3.91c.53.24,1.13.24,1.66,0l8.58-3.9c.51-.22.73-.81.51-1.32-.1-.23-.28-.41-.51-.51h2.25Z"/>
  <g>
    <path class="st1" d="M12,16.17v6.75"/>
    <path class="st1" d="M14.95,18.3l-2.95-2.9-2.95,2.9"/>
  </g>
  <g>
    <path class="st1" d="M12,7.83V1.08"/>
    <path class="st1" d="M9.05,5.7l2.95,2.9,2.95-2.9"/>
  </g>
  <path class="st0" d="M19.65,12H4.35"/>
</svg>