<?xml version="1.0" encoding="UTF-8"?>
<svg id="Layer_1" data-name="Layer 1" xmlns="http://www.w3.org/2000/svg" viewBox="0 0 213.83 42.15">
  <defs>
    <style>
      .cls-1 {
        fill: #231f20;
      }
    </style>
  </defs>
  <g>
    <g>
      <path class="cls-1" d="M164.39,19.5c-.58-1.3-1.38-2.41-2.39-3.34-1.01-.92-2.19-1.64-3.56-2.13-1.37-.5-2.82-.75-4.37-.75-1.26,0-2.46.16-3.6.5-.26.07-.52.16-.77.25-1.37.5-2.56,1.21-3.57,2.13-.81.75-1.48,1.61-2.01,2.59-.14.24-.26.49-.37.75-.58,1.3-.87,2.75-.87,4.35s.29,3.05.87,4.35,1.37,2.41,2.38,3.34c1.01.93,2.2,1.64,3.57,2.14,1.37.5,2.82.75,4.37.75s3-.25,4.37-.75,2.56-1.21,3.56-2.14c1.01-.93,1.8-2.04,2.39-3.34.58-1.3.87-2.75.87-4.35s-.29-3.05-.87-4.35ZM154.07,28.95c-1.58,0-2.8-.47-3.67-1.41s-1.31-2.17-1.31-3.69.44-2.75,1.31-3.69,2.09-1.41,3.67-1.41,2.8.47,3.67,1.41,1.31,2.17,1.31,3.69-.44,2.75-1.31,3.69-2.09,1.41-3.67,1.41Z"/>
      <path class="cls-1" d="M87.25,13.65c-.36-.02-.72-.04-1.08-.04-1.38,0-2.53.31-3.44.93s-1.7,1.56-2.36,2.8h-.08v-3.23h-6.22v20.15h6.22v-8.41c0-1,.05-1.91.16-2.74s.35-1.54.73-2.14c.37-.59.9-1.06,1.59-1.39.69-.33,1.63-.5,2.82-.5.35,0,.68.02,1.01.06.04-.1.08-.19.12-.29.67-1.49,1.58-2.78,2.74-3.84.24-.22.49-.43.74-.62-1.69-.72-2.6-.71-2.96-.74h.01Z"/>
      <path class="cls-1" d="M108.92,19.5c-.58-1.3-1.37-2.41-2.38-3.34-1.01-.92-2.2-1.64-3.56-2.13-1.37-.5-2.83-.75-4.37-.75s-3.01.25-4.38.75c-1.37.5-2.55,1.21-3.56,2.13-.15.14-.29.27-.43.42-.81.83-1.46,1.81-1.95,2.92-.58,1.3-.87,2.75-.87,4.35s.29,3.05.87,4.35,1.37,2.41,2.38,3.34c1.01.93,2.2,1.64,3.56,2.14,1.37.5,2.83.75,4.38.75s3-.25,4.37-.75,2.55-1.21,3.56-2.14c1.01-.93,1.8-2.04,2.38-3.34.58-1.3.87-2.75.87-4.35s-.29-3.05-.87-4.35ZM98.6,28.95c-1.58,0-2.8-.47-3.67-1.41-.87-.94-1.31-2.17-1.31-3.69s.44-2.75,1.31-3.69c.87-.94,2.09-1.41,3.67-1.41s2.8.47,3.67,1.41,1.31,2.17,1.31,3.69-.44,2.75-1.31,3.69c-.87.94-2.09,1.41-3.67,1.41Z"/>
      <path class="cls-1" d="M126.94,24.75c-.51-.76-1.16-1.36-1.95-1.8s-1.63-.77-2.53-.97c-.74-.17-1.44-.33-2.11-.48-.14-.03-.28-.07-.42-.1-.79-.18-1.44-.39-1.95-.62s-.77-.6-.77-1.1c0-.61.25-1.04.75-1.28.5-.25,1.01-.38,1.53-.38,1.18,0,2.18.36,3,1.07l3.52-3.95c-.75-.57-1.59-.99-2.54-1.27-1.35-.39-2.69-.58-4.02-.58-1.05,0-2.09.13-3.11.4-1.02.26-1.93.67-2.72,1.22-.79.55-1.42,1.26-1.91,2.12-.48.86-.72,1.88-.72,3.07,0,1.27.25,2.28.77,3.04.51.76,1.16,1.35,1.95,1.76s1.63.72,2.53.93c.07,0,.14.03.2.05.82.19,1.6.37,2.32.53.79.18,1.44.4,1.95.66s.77.66.77,1.18c0,.55-.29.93-.87,1.14-.58.2-1.23.31-1.95.31-.94,0-1.76-.18-2.47-.56-.56-.3-1.09-.71-1.57-1.23l-3.72,4.18c.91.82,1.99,1.39,3.24,1.74,1.44.4,2.86.6,4.27.6,1.08,0,2.17-.1,3.28-.31,1.1-.21,2.1-.57,2.99-1.08.88-.51,1.61-1.19,2.17-2.03.57-.85.85-1.91.85-3.21s-.26-2.29-.77-3.05h0Z"/>
      <path class="cls-1" d="M137.41,13.78v-5.97h-6.22v5.97h-3.98v4.98h3.98v9.57c0,1.11.19,2.05.56,2.82s.89,1.4,1.56,1.88c.66.49,1.44.84,2.32,1.06s1.85.33,2.9.33c.72,0,1.45-.04,2.2-.12.75-.08,1.46-.25,2.15-.5v-5.18c-.16.15-.38.26-.63.35-.17.06-.37.1-.59.13-.54.07-.97.1-1.31.1-.66,0-1.19-.09-1.59-.27s-.7-.44-.89-.77c-.2-.33-.32-.73-.37-1.18-.05-.46-.08-.96-.08-1.52v-6.71h4.83c.66-1.46,1.56-2.71,2.7-3.75.49-.45,1.02-.86,1.59-1.22h-9.13Z"/>
      <path class="cls-1" d="M50.35,23.86c0-1.6.29-3.05.87-4.35s1.37-2.41,2.38-3.34c1.01-.93,2.2-1.64,3.57-2.13,1.37-.5,2.83-.75,4.37-.75s3.01.25,4.37.75c1.37.5,2.56,1.21,3.57,2.13,1.01.93,1.8,2.04,2.38,3.34.58,1.3.87,2.75.87,4.35s-.29,3.05-.87,4.35-1.38,2.41-2.38,3.34c-1.01.93-2.2,1.64-3.57,2.14s-2.83.75-4.37.75-3.01-.25-4.37-.75c-1.37-.5-2.56-1.21-3.57-2.14s-1.8-2.04-2.38-3.34c-.58-1.3-.87-2.75-.87-4.35ZM56.57,23.86c0,1.52.44,2.75,1.31,3.69.87.94,2.09,1.41,3.67,1.41s2.8-.47,3.67-1.41c.87-.94,1.31-2.17,1.31-3.69s-.44-2.75-1.31-3.69c-.87-.94-2.09-1.41-3.67-1.41s-2.8.47-3.67,1.41c-.87.94-1.31,2.17-1.31,3.69Z"/>
      <path class="cls-1" d="M166.59,13.78h5.97v2.74h.08c.19-.39.47-.77.83-1.16s.79-.73,1.29-1.04c.5-.3,1.06-.55,1.7-.75.64-.19,1.33-.29,2.07-.29,1.58,0,2.85.24,3.81.73.97.48,1.72,1.15,2.26,2.01s.9,1.87,1.1,3.03c.19,1.16.29,2.42.29,3.77v11.11h-6.22v-9.87c0-.58-.02-1.18-.06-1.8s-.17-1.2-.37-1.72c-.21-.52-.53-.95-.95-1.29-.43-.33-1.04-.5-1.84-.5s-1.45.15-1.95.44c-.5.29-.88.68-1.14,1.16s-.44,1.03-.52,1.64-.12,1.24-.12,1.91v10.03h-6.22V13.78h-.01Z"/>
      <path class="cls-1" d="M207.02,30.45c-.99,1.27-2.25,2.25-3.77,2.94s-3.1,1.04-4.73,1.04-3.01-.25-4.37-.75c-1.37-.5-2.56-1.21-3.57-2.14-1.01-.93-1.8-2.04-2.38-3.34s-.87-2.75-.87-4.35.29-3.05.87-4.35,1.37-2.41,2.38-3.34c1.01-.93,2.2-1.64,3.57-2.13,1.37-.5,2.83-.75,4.37-.75,1.44,0,2.74.25,3.92.75,1.17.5,2.17,1.21,2.98,2.13.82.93,1.44,2.04,1.89,3.34.44,1.3.66,2.75.66,4.35v1.95h-14.43c.25,1.19.79,2.13,1.62,2.84s1.85,1.06,3.07,1.06c1.02,0,1.89-.23,2.59-.68s1.32-1.04,1.84-1.76l4.35,3.19h0ZM201.76,21.58c.03-1.05-.32-1.95-1.04-2.69-.72-.75-1.64-1.12-2.78-1.12-.69,0-1.3.11-1.82.33-.53.22-.97.5-1.35.85-.37.35-.66.75-.87,1.2-.21.46-.33.93-.35,1.43,0,0,8.21,0,8.21,0Z"/>
    </g>
    <path class="cls-1" d="M207.13,11.16c0-.46.09-.9.27-1.3.18-.4.42-.76.72-1.06s.66-.54,1.06-.72.84-.27,1.3-.27.9.09,1.3.27c.41.18.76.42,1.06.72s.54.66.72,1.06c.18.4.27.84.27,1.3s-.09.9-.27,1.3c-.18.4-.42.76-.72,1.06s-.66.54-1.06.72c-.4.18-.84.27-1.3.27s-.9-.09-1.3-.27c-.4-.18-.76-.42-1.06-.72s-.54-.66-.72-1.06c-.18-.41-.27-.84-.27-1.3ZM207.72,11.16c0,.38.07.74.22,1.07.14.34.34.63.59.88s.54.45.88.59.69.22,1.07.22.73-.07,1.07-.22c.34-.14.63-.34.88-.59s.45-.54.59-.88c.14-.34.22-.69.22-1.07s-.07-.73-.22-1.07c-.14-.34-.34-.63-.59-.88s-.54-.45-.88-.59c-.34-.14-.69-.22-1.07-.22s-.73.07-1.07.22-.63.34-.88.59-.45.54-.59.88-.22.69-.22,1.07ZM209.19,9.23h1.48c.46,0,.8.1,1.02.3s.33.48.33.85c0,.34-.09.59-.26.76s-.39.27-.65.3l.99,1.62h-.74l-.95-1.57h-.51v1.57h-.7v-3.82h-.01ZM209.89,10.89h.51c.11,0,.22,0,.32-.01.11,0,.21-.03.29-.07.09-.04.16-.09.21-.16s.08-.17.08-.3-.03-.22-.08-.3c-.05-.07-.12-.13-.21-.16-.09-.04-.18-.06-.29-.06h-.83v1.07h0Z"/>
  </g>
  <g>
    <path class="cls-1" d="M0,21.07c0-5.43,2.05-10.38,5.42-14.11v28.23C2.05,31.45,0,26.5,0,21.07Z"/>
    <path class="cls-1" d="M7.69,4.78c1.51-1.24,3.19-2.28,5-3.07v38.71c-1.82-.79-3.5-1.82-5-3.07V4.78Z"/>
    <path class="cls-1" d="M14.96.88c1.6-.49,3.27-.79,5.01-.88v42.14c-1.73-.09-3.41-.39-5.01-.88,0,0,0-40.38,0-40.38Z"/>
    <path class="cls-1" d="M22.24,0c1.73.09,3.41.39,5,.88v40.39c-1.6.49-3.27.79-5,.88V0Z"/>
    <path class="cls-1" d="M29.51,1.71c1.82.79,3.5,1.83,5,3.07v32.58c-1.51,1.24-3.19,2.28-5,3.07V1.71Z"/>
    <path class="cls-1" d="M42.2,21.07c0,5.43-2.05,10.38-5.42,14.12V6.96c3.37,3.74,5.42,8.68,5.42,14.11Z"/>
  </g>
</svg>