<?xml version="1.0" encoding="UTF-8"?>
<svg id="Layer_1" data-name="Layer 1" xmlns="http://www.w3.org/2000/svg" viewBox="0 0 1032.33 965.9">
  <defs>
    <style>
      .cls-1 {
        fill: #ecd488;
      }
    </style>
  </defs>
  <path class="cls-1" d="M112.28,800.57l-14.45-48.99-7.33-27.97-62.06-146.64-3.17-18.72,23.03-80.6c1.89-6.62,7.59-10.38,14.1-9.17,5.87,1.09,11.33,7.53,9.36,14.44l-22.98,80.49,64.57,152.57,18.6,74.19c.71,5.48-2.37,10.2-5.92,12.38-3.22,1.98-11.54,2.84-13.75-1.98Z"/>
  <path d="M599.55,954.35c-89.6,11.08-168.07,15.99-257.36,6.58-31.78-3.35-62.18-7.84-93.52-13.15-55.73-21.91-103.64-57.74-147.48-97.57-2.73-2.48-4.64-5.35-5.25-9.16-7.3-45.71-21.01-89.04-40.71-130.93l-26.61-56.57c-15.17-32.24-24.87-65.66-28.61-101.28,1.73-18.53,5.54-35.45,11.06-53.1,15.24-48.7,38.89-97.68,61.68-143.31,1.86-3.72,4.7-5.88,8.53-7.51l77.02-32.98,11.09-32.81,40.84-60.31c17.17-29.58,34.44-58.03,53.8-86.18,18.71-27.2,44.8-62.52,71.56-81.3C364.1,22.53,414.91,3.81,456.93,0c8.98,2.63,16.34,6.49,24.31,10.96,15.2,9.83,28.92,20.45,42.73,32.44,24.75,21.49,47.64,43.72,71.03,66.85,59.2,23.74,105.26,50.15,152.16,93.81l66.1,59.04c35.52,31.73,74.38,58.33,113.94,84.69,11.82,7.88,10.39,15.38,18.94,29.33,6.52,10.63,12.12,20.91,16.47,32.73,7.86,21.39,13.62,42.52,19.2,64.81,8.76,37.39,16.28,74.05,22.91,112.04l27.61,158.41-48.45,157.55c-1.45,4.85-4.35,7.72-9.09,9.28l-120.78,36.21c-30.75,2.71-60.16,3.34-90.94,2.83l-85.03-1.39c-26.51.38-51.46,1.41-78.48,4.75Z"/>
  <path d="M789.15,298.25c-2.24-11.72-4.56-22.73-9.79-33.2l-53.85-48.25c-47.92-42.94-84.2-62.25-143.82-86.29l-40.69-39.17c-19.96-19.21-61.79-56.63-86.83-66.57-29.54,3.16-57.13,13.26-81.87,29.7,24.44,22.71,37.98,60.51,49.26,91.38,11.83,35.15,21.23,70.21,29.16,106.5l3.67,5.69,82.88,165.66c36.88,22.37,74.44,41.78,113.71,58.54l56.26,20.93,85.04-42.49c3.52-54.18,4.57-108.29-3.13-162.45Z"/>
  <path d="M288.43,556.3l80.92,105.07,122.73-97.14,4.45-116.15-95.94-131.51-76.5,55.65c6.68,25.44,12.16,50.19,14.71,75.97.6,10.23.84,19.43-1.45,29.41-13.78,27.69-29.55,53.72-48.93,78.72Z"/>
  <path d="M847,925.16l115.44-34.52,45.22-146.91-26.3-151.74-21.83-107.19c-8.37-32.61-17.08-71.06-36.32-98.56l-8.41-17.97-66.34-46.61-8.4,158.56-75.89,29.03-26.07,60.92c21.09,26.18,40.33,52.51,58.3,80.65,20.47,33.41,38.42,64.6,44.16,103.96l6.02,61.08c1.77,36.31,1.18,71.37.42,109.31Z"/>
  <path d="M323.94,840.3c32.27,12.6,62.44,28.49,91.04,48.43l124.55-120.09,59.74-54.18c6.34-3.62,10.31-8.67,14.49-14.65,10.32-17.76,19.2-35.45,27.8-54.38,18.16-39.98,34.52-79.99,50.44-121.1l-163.89-62.65-.07,114.57-133.18,127.83c-5.91,38.09-21.25,73.25-43.51,104.21-16.41,5.32-32.22,8.08-49.18,10.3-20.51,2.15-40.45,2.91-61.07,2.94-6.77-.24-12.07,4.28-12.86,10.4-.66,5.16,2.48,12.83,8.86,13.27,29.35,2,57.79-.8,86.84-4.92Z"/>
  <path d="M112.28,800.57c2.21,4.82,10.53,3.96,13.75,1.98,3.55-2.18,6.63-6.9,5.92-12.38l-18.6-74.19-64.57-152.57,22.98-80.49c1.97-6.91-3.49-13.35-9.36-14.44-6.51-1.21-12.2,2.55-14.1,9.17l-23.03,80.6,3.17,18.72,62.06,146.64,7.33,27.97,14.45,48.99Z"/>
  <path d="M690.58,925.51l89.79,1.39c1.37-57.7,1.52-114.26-5.5-171.57-2.46-21.77-8.47-41.32-17.68-61.2-15.28-33.26-32.88-64.46-53.18-95.26l-62,139.43-149.89,149.85,10.22,51.58,96.71-9.49c30.7-3.63,59.98-5.22,91.53-4.73Z"/>
  <g>
    <path class="cls-1" d="M789.15,298.25c7.7,54.16,6.66,108.27,3.13,162.45l-85.04,42.49-56.26-20.93c-39.27-16.76-76.83-36.17-113.71-58.54l-82.88-165.66-3.67-5.69c-7.92-36.29-17.33-71.35-29.16-106.5-11.28-30.87-24.83-68.67-49.26-91.38,24.74-16.44,52.33-26.55,81.87-29.7,25.04,9.94,66.87,47.36,86.83,66.57l40.69,39.17c59.62,24.04,95.9,43.35,143.82,86.29l53.85,48.25c5.23,10.47,7.55,21.48,9.79,33.2Z"/>
    <path class="cls-1" d="M847,925.16c.76-37.94,1.35-72.99-.42-109.31l-6.02-61.08c-5.74-39.36-23.68-70.55-44.16-103.96-17.97-28.14-37.21-54.47-58.3-80.65l26.07-60.92,75.89-29.03,8.4-158.56,66.34,46.61,8.41,17.97c19.24,27.5,27.95,65.94,36.32,98.56l21.83,107.19,26.3,151.74-45.22,146.91-115.44,34.52Z"/>
    <path class="cls-1" d="M323.94,840.3c-29.05,4.12-57.5,6.92-86.84,4.92-6.38-.44-9.52-8.11-8.86-13.27.79-6.12,6.09-10.64,12.86-10.4,20.63-.03,40.57-.79,61.07-2.94,16.95-2.23,32.77-4.99,49.18-10.3,22.26-30.96,37.59-66.11,43.51-104.21l133.18-127.83.07-114.57,163.89,62.65c-15.92,41.11-32.27,81.12-50.44,121.1-8.6,18.93-17.48,36.61-27.8,54.38-4.18,5.98-8.15,11.03-14.49,14.65l-59.74,54.18-124.55,120.09c-28.59-19.95-58.77-35.83-91.04-48.43Z"/>
    <path class="cls-1" d="M690.58,925.51c-31.54-.49-60.83,1.1-91.53,4.73l-96.71,9.49-10.22-51.58,149.89-149.85,62-139.43c20.29,30.8,37.9,62.01,53.18,95.26,9.21,19.88,15.22,39.44,17.68,61.2,7.02,57.31,6.88,113.87,5.5,171.57l-89.79-1.39Z"/>
    <path class="cls-1" d="M288.43,556.3c19.38-25,35.15-51.02,48.93-78.72,2.29-9.97,2.05-19.17,1.45-29.41-2.56-25.78-8.03-50.52-14.71-75.97l76.5-55.65,95.94,131.51-4.45,116.15-122.73,97.14-80.92-105.07Z"/>
  </g>
</svg>