<svg xmlns="http://www.w3.org/2000/svg" width="1024" height="283" viewBox="-1.088 -1.088 139.17 38.444"><path d="M46.28 30.09h.147c.374 0 .773-.05.773-.59v-5.438c0-.542-.399-.59-.773-.59h-.146v-.317c.408 0 1.033.043 1.546.043.522 0 1.148-.043 1.638-.043v.316h-.146c-.375 0-.773.05-.773.59v5.437c0 .542.398.591.773.591h.146v.313c-.5 0-1.128-.04-1.65-.04-.512 0-1.126.04-1.534.04zm10.36-1.733.02-.02v-3.892c0-.85-.595-.974-.91-.974h-.228v-.315c.49 0 .972.042 1.462.042.427 0 .857-.042 1.283-.042v.315h-.154c-.44 0-.932.08-.932 1.316v4.723c0 .363.012.725.064 1.047h-.397l-5.378-5.956v4.274c0 .906.176 1.214.98 1.214h.178v.313c-.448 0-.898-.04-1.348-.04-.467 0-.949.04-1.418.04v-.313h.146c.72 0 .94-.485.94-1.317v-4.37c0-.58-.482-.93-.95-.93h-.136v-.316c.395 0 .803.042 1.199.042.315 0 .619-.042.93-.042zm3.191-4.68c-.784 0-.812.186-.97.943h-.313c.043-.29.093-.58.126-.883.04-.29.063-.58.063-.88h.25c.085.311.345.3.627.3h5.389c.28 0 .543-.01.564-.32l.248.041c-.038.278-.08.56-.113.84-.021.28-.021.56-.021.84l-.312.117c-.021-.386-.075-1-.774-1h-1.712v5.523c0 .801.366.891.867.891h.197v.313c-.406 0-1.138-.04-1.702-.04-.625 0-1.358.04-1.765.04v-.313h.198c.576 0 .866-.05.866-.869v-5.544zm6.319 6.412h.146c.375 0 .772-.05.772-.59v-5.437c0-.542-.397-.59-.772-.59h-.146v-.317c.635 0 1.725.043 2.6.043.878 0 1.963-.043 2.67-.043a18 18 0 0 0 .025 1.591l-.316.083c-.05-.674-.175-1.213-1.272-1.213h-1.448v2.716h1.239c.628 0 .764-.35.825-.91h.312a25 25 0 0 0 0 2.395l-.312.063c-.061-.623-.093-1.028-.815-1.028h-1.25v2.418c0 .675.604.675 1.27.675 1.256 0 1.808-.083 2.121-1.266l.292.074a24 24 0 0 0-.355 1.65c-.667 0-1.87-.042-2.809-.042s-2.182.041-2.777.041zm8.688-3.424h.51c1.045 0 1.608-.393 1.608-1.619 0-.92-.595-1.515-1.524-1.515-.316 0-.449.033-.594.042zm-1.336-2.408c0-.758-.418-.787-.742-.787h-.19v-.314c.334 0 .982.042 1.62.042.625 0 1.127-.042 1.682-.042 1.313 0 2.482.353 2.482 1.83 0 .932-.624 1.502-1.45 1.827l1.788 2.654c.291.44.498.562 1.01.622v.313c-.344 0-.678-.04-1.022-.04-.326 0-.659.04-.982.04-.804-1.047-1.494-2.17-2.172-3.364h-.688v2.221c0 .802.375.83.854.83h.19v.313c-.597 0-1.202-.04-1.797-.04-.5 0-.992.04-1.515.04v-.313h.19c.384 0 .742-.174.742-.56zm13.29 4.1.02-.02v-3.892c0-.85-.595-.974-.907-.974h-.23v-.315c.491 0 .969.042 1.462.042.43 0 .856-.042 1.285-.042v.315h-.155c-.44 0-.931.08-.931 1.316v4.723c0 .363.009.725.06 1.047h-.394l-5.378-5.956v4.274c0 .906.178 1.214.982 1.214h.179v.313c-.45 0-.901-.04-1.35-.04-.47 0-.95.04-1.419.04v-.313h.144c.723 0 .94-.485.94-1.317v-4.37c0-.58-.48-.93-.948-.93h-.136v-.316c.395 0 .806.042 1.2.042.312 0 .615-.042.929-.042zm4.835-4.037h-.02l-.972 2.937h1.951zm-1.523 4.598c-.106.352-.234.625-.234.808 0 .313.442.363.785.363h.116v.312c-.42-.02-.847-.04-1.266-.04-.376 0-.75.02-1.125.04v-.312h.06c.408 0 .755-.239.907-.674l1.673-4.76c.135-.387.326-.904.387-1.29.334-.114.752-.32.95-.446.033-.01.05-.019.084-.019.03 0 .05 0 .073.03.031.083.062.176.095.26l1.92 5.428c.125.363.251.748.385 1.06.127.29.347.411.691.411h.061v.312c-.468-.02-.939-.04-1.439-.04-.51 0-1.034.02-1.565.04v-.312h.115c.238 0 .646-.039.646-.299 0-.136-.093-.416-.211-.748l-.407-1.204h-2.37l-.33 1.08zm6.024-5.242c-.785 0-.815.187-.972.944h-.315c.043-.29.096-.58.127-.883.042-.29.063-.58.063-.88h.25c.083.311.345.3.626.3h5.389c.281 0 .54-.01.562-.32l.251.041q-.061.418-.114.84c-.026.28-.026.56-.026.84l-.31.117c-.017-.386-.072-1-.77-1h-1.714v5.523c0 .801.366.891.868.891h.197v.313c-.406 0-1.137-.04-1.702-.04-.625 0-1.358.04-1.767.04v-.313h.2c.577 0 .87-.05.87-.869v-5.544zm6.366 6.413h.146c.378 0 .773-.05.773-.59v-5.437c0-.542-.395-.59-.773-.59h-.146v-.317c.407 0 1.033.043 1.544.043.523 0 1.149-.043 1.643-.043v.316h-.146c-.379 0-.777.05-.777.59v5.437c0 .542.398.591.777.591h.146v.313c-.503 0-1.13-.04-1.652-.04-.513 0-1.128.04-1.535.04zm7.507.012c2.029 0 2.379-1.775 2.379-3.288 0-1.517-.821-3.354-2.556-3.354-1.826 0-2.37 1.62-2.37 3.008 0 1.86.857 3.634 2.547 3.634m-.156-7.099c2.225 0 4 1.37 4 3.582 0 2.387-1.722 3.973-3.947 3.973-2.217 0-3.904-1.492-3.904-3.727 0-2.155 1.68-3.828 3.85-3.828m11.039 5.355.021-.02v-3.892c0-.85-.596-.974-.912-.974h-.225v-.315c.488 0 .97.042 1.46.042.431 0 .858-.042 1.285-.042v.315h-.156c-.441 0-.932.08-.932 1.316v4.723c0 .363.012.725.064 1.047h-.398l-5.377-5.956v4.274c0 .906.177 1.214.982 1.214h.177v.313c-.449 0-.897-.04-1.347-.04-.47 0-.951.04-1.422.04v-.313h.148c.723 0 .937-.485.937-1.317v-4.37c0-.58-.477-.93-.95-.93h-.135v-.316c.398 0 .804.042 1.203.042.312 0 .615-.042.928-.042zm4.832-4.037h-.02l-.973 2.937h1.957zm-1.525 4.598c-.102.352-.229.625-.229.808 0 .313.442.363.782.363h.117v.312c-.419-.02-.846-.04-1.264-.04-.38 0-.753.02-1.126.04v-.312h.057c.41 0 .757-.239.911-.674l1.673-4.76c.136-.387.322-.904.385-1.29a5.4 5.4 0 0 0 .95-.446c.032-.01.053-.019.085-.019.03 0 .049 0 .072.03.032.083.062.176.097.26l1.92 5.428c.122.363.25.748.386 1.06.123.29.345.411.689.411h.062v.312c-.469-.02-.94-.04-1.44-.04-.513 0-1.036.02-1.569.04v-.312h.117c.238 0 .648-.039.648-.299 0-.136-.096-.416-.211-.748l-.405-1.204h-2.369zm8.2.467c0 .415.29.54.625.582.427.031.897.031 1.38-.02.436-.05.814-.302 1-.562.167-.23.259-.518.325-.748h.303c-.117.592-.263 1.175-.39 1.765-.917 0-1.837-.04-2.753-.04-.92 0-1.84.04-2.758.04v-.313h.143c.38 0 .786-.05.786-.695v-5.333c0-.54-.406-.59-.786-.59h-.143v-.315c.553 0 1.097.042 1.648.042.534 0 1.056-.042 1.59-.042v.315h-.263c-.396 0-.707.01-.707.56zm3.33-5.426h.13c.14 0 .206-.106.206-.278 0-.175-.105-.235-.216-.235h-.12zm-.372.577v-.054c.133-.019.16-.013.16-.099v-.807c0-.115-.014-.154-.158-.148v-.056h.565c.19 0 .37.093.37.29 0 .165-.108.282-.26.33l.18.252c.085.11.18.22.243.257v.035h-.212c-.103 0-.192-.216-.395-.503h-.12v.362c0 .074.025.068.158.087v.054zm.546.31c.492 0 .87-.416.87-.887 0-.47-.37-.892-.87-.892-.496 0-.872.421-.872.892s.376.886.872.886zm0-1.982c.63 0 1.1.482 1.1 1.095 0 .614-.47 1.09-1.1 1.09-.628 0-1.1-.476-1.1-1.09a1.08 1.08 0 0 1 1.1-1.095m-20.29-18.437c-.056 0-.212.096-.422.211-.404.23-1.21.572-1.977.82v.305c.73.21 1.018.249 1.018 1.49v10.618c0 .632-.384.633-.922.633h-.367V19c.713-.017 1.404-.037 2.093-.037.693 0 1.366.037 2.016.037v-.498h-.326c-.537 0-.96 0-.96-.631V4.697c0-.155-.036-.27-.153-.27m13.32 0c-.06 0-.212.097-.422.211-.404.232-1.209.572-1.979.819v.306c.73.21 1.016.249 1.016 1.49v8.2c0 1.162-.097 2.271-.266 3.396l.403.21.576-.438c.5.209 1.246.666 2.666.666 2.747 0 4.588-2.501 4.588-4.998 0-2.077-1.344-4.004-3.57-4.004-1.054 0-2.092.725-2.86 1.37V4.698c0-.155-.037-.27-.152-.27m-21.4.973c-3.764 0-7.272 2.805-7.272 6.715 0 4.29 2.836 7.17 7.326 7.17 1.267 0 3.438-.512 4.244-1.01l.442-2.785-.442-.113c-.384 2.004-1.957 3.3-3.857 3.3-2.952 0-5.723-2.767-5.723-6.623 0-4.575 3.206-6.043 5.416-6.043 2.147 0 3.743.897 4.106 3.127h.478l-.19-2.728c-1.477-.514-2.974-1.01-4.529-1.01m-45.235.076c-.482 0-.941.44-.941.918 0 .495.44.953.941.953a.957.957 0 0 0 .941-.953c0-.517-.445-.918-.94-.918m-15.986.213v.492c.862.02 1.763-.094 1.763 1.621v9.252c-.057 1.297-.614 1.336-1.763 1.45V19c.862-.017 1.706-.037 2.57-.037.901 0 1.807.037 2.783.037 6.794 0 7.907-4.75 7.907-6.637 0-3.378-2.706-6.674-7.676-6.674-1.42 0-2.515.033-3.32.033-.75 0-1.517.001-2.264-.033m5.14.61c3.704 0 6.006 2.575 6.006 6.14 0 2.843-1.359 5.951-5.506 5.951-.94 0-1.996-.17-1.996-1.64V6.373c.347-.02.71-.074 1.496-.074m11.479 3.986a.7.7 0 0 0-.346.094c-.078.06-1.152.418-2.055.687v.307c.713.379.999.493.999 1.332v5.166c0 .632-.383.633-.92.633h-.366V19c.71-.017 1.401-.038 2.092-.038.69 0 1.363.038 2.016.038v-.496h-.326c-.536 0-.961-.001-.961-.633v-7.32c0-.154-.038-.266-.133-.266m4.664 0c-.922.398-1.71.647-2.533.914v.365c.9.361 1.111.552 1.111 1.256v5.053c0 .632-.383.63-.92.63h-.346V19c.69-.017 1.383-.037 2.07-.037.693 0 1.368.037 2.04.037v-.496h-.346c-.537 0-.963 0-.963-.631V12.23c.636-.42 1.613-.916 2.227-.916 1.095 0 1.765.532 1.765 1.621v4.938c0 .632-.382.63-.92.63h-.345V19c.69-.017 1.382-.037 2.074-.037.688 0 1.36.037 2.033.037v-.496h-.345c-.536 0-.96 0-.96-.631v-4.918c0-1.49-.577-2.67-2.207-2.67-1.286 0-2.227.647-3.322 1.431v-1.244c0-.15-.055-.187-.113-.187m10.744 0c-1.34 0-3.873 1.105-3.873 4.844 0 1.219.612 4.156 3.666 4.156 1.573 0 2.667-.99 3.55-2.153l-.269-.267c-.708.705-1.535 1.277-2.591 1.277-1.535 0-2.709-1.486-2.82-3.299-.04-.649-.04-.934 0-1.105h5.392l.174-.115c.018-.116.017-.228.017-.346-.018-2.021-1.69-2.992-3.246-2.992m6.473 0c-.173 0-.944.495-2.344 1.088v.283c.288.154.996.27.996.86v5.355c0 .632-.38.633-.918.633h-.52V19c.693-.017 1.497-.037 2.286-.037.825 0 1.63.019 2.685.037v-.496h-1.076c-.537 0-.92-.001-.92-.633v-4.477c0-1.147 1.077-1.584 1.403-1.584.67 0 .668.46 1.265.46.54 0 .9-.46.9-.975 0-.688-.611-1.01-1.091-1.01-1.171 0-1.977 1.22-2.455 1.963h-.041v-1.715c0-.193-.056-.248-.17-.248m7.369 0c-2.111 0-2.975 1.371-2.975 2.441 0 3.07 4.18 2.346 4.18 4.596 0 .667-.42 1.355-1.553 1.355-1.4 0-2.168-1.07-2.42-2.328l-.343.096.21 2.195c.671.381 1.574.647 2.344.647 2.282 0 3.3-1.336 3.3-2.594 0-2.994-4.452-2.308-4.452-4.541 0-.82.728-1.26 1.496-1.26 1.228 0 1.902.69 2.094 1.89h.44l-.136-1.946c-.748-.381-1.572-.551-2.185-.551m27.348.287c-.251 0-1.783.112-2.475.133v.361c1.07.094 1.15.572 1.15 1.07v4.883c0 1.601 1.073 2.268 2.108 2.268 1.364 0 2.25-.666 3.4-1.6v1.543l.094.057c.367-.115 1.94-.515 2.767-.59v-.402c-.25 0-.54.017-.767.017-.328 0-.54-.016-.54-.361v-7.037c0-.21.002-.342-.151-.342-.191 0-1.268.149-2.995.264v.343c.69.193 1.61.402 1.61.782v5.134c-.805.663-1.67 1.16-2.32 1.16-1.67 0-1.669-1.641-1.669-2.212v-4.92c0-.42 0-.551-.212-.551m-41.264.322c1.074 0 1.668.781 1.668 1.756 0 .228-.055.475-.533.475h-3.342c.23-1.375 1.037-2.23 2.207-2.23m52.646.42c1.496 0 3.07 1.716 3.07 3.774 0 1.698-.862 3.703-2.917 3.703-1.288 0-1.979-1.22-1.979-1.946v-4.632c.52-.44 1.111-.899 1.826-.899" style="fill:#231f20;fill-rule:evenodd"/><path d="M18.404 36.268C8.309 36.314 0 28.187 0 18.292 0 7.478 8.309-.002 18.404 0h4.732c9.975-.002 19.08 7.474 19.08 18.292 0 9.89-9.105 17.976-19.08 17.976z" style="fill:#004c97;fill-rule:evenodd"/><path d="M18.404 36.268C8.309 36.314 0 28.187 0 18.292 0 7.478 8.309-.002 18.404 0h.265c9.974-.002 18.707 7.474 18.707 18.292 0 9.89-8.733 17.976-18.707 17.976z" style="fill:#004c97;fill-rule:evenodd"/><path d="M18.445 1.5c-9.225.003-16.7 7.433-16.7 16.602 0 9.167 7.475 16.596 16.7 16.597 9.226 0 16.702-7.43 16.705-16.597-.003-9.17-7.48-16.6-16.705-16.602" style="fill:#fefefe;fill-rule:evenodd"/><path d="M14.653 27.918V8.282c-3.97 1.52-6.785 5.338-6.795 9.82.01 4.48 2.826 8.3 6.795 9.816m14.381-9.816c-.008-4.484-2.827-8.307-6.801-9.822v19.643c3.974-1.517 6.793-5.336 6.8-9.82" style="fill:#004c97;fill-rule:evenodd"/></svg>